# xmcd
#
# Track frame offsets:
#	150
#	3403
#	5666
#	11474
#	16698
#	19825
#	22843
#	27767
#	29985
#	33543
#	40552
#	43476
#	48639
#	50193
#	56052
#	59256
#	67434
#	71218
#	83027
#	92381
#	94970
#	96793
#	102366
#	106920
#	113919
#	117893
#	124392
#	126391
#	130149
#	136813
#	141022
#	144410
#	146133
#	147636
#	152760
#	153899
#	157422
#	158445
#	159623
#	163971
#	172124
#	173083
#	174236
#	175620
#	177039
#	180163
#	181847
#	184205
#	188639
#	194887
#	198626
#	207835
#	209088
#	230471
#	233930
#	237988
#	245232
#	253136
#	254494
#	257187
#	261310
#	263309
#	265727
#	268606
#	269390
#	272208
#	276881
#	282540
#	283279
#	286988
#	289471
#	290439
#	293653
#	296036
#	302559
#	305283
#	307617
#	311366
#
# Disc length: 4214 seconds
#
# Revision: 7
# Processed by: cddbd v1.5.2PL0 Copyright (c) Steve Scherf et al.
# Submitted via: EasyCDDAExtractor 16.1.0.1
#
DISCID=ad10744e
DTITLE=Wee Sing - Nursery Rhymes and Lullabies
DYEAR=2002
DGENRE=Children
TTITLE0=Introduction
TTITLE1=Hickory Dickory Dock
TTITLE2=Jack and Jill
TTITLE3=Thirty Days
TTITLE4=The North Wind Doth Blow
TTITLE5=One Misty, Moisty Morning
TTITLE6=I Love Little Pussy
TTITLE7=Lazy Mary
TTITLE8=There Was a Little Girl
TTITLE9=Mary Had a Little Lamb
TTITLE10=Georgie Porgie
TTITLE11=Going to St Ives
TTITLE12=Diddle, Diddle,Dumpling
TTITLE13=Little Boy Blue
TTITLE14=To Market, to Market
TTITLE15=Six Little Ducks
TTITLE16=Polly, Put the Kettle On
TTITLE17=Over in the Meadow
TTITLE18=This Old Man
TTITLE19=There  Was a Crooked Man
TTITLE20=Doctor Foster
TTITLE21=See-Saw, Sacra-Down
TTITLE22=Baa, Baa, Black SHeep
TTITLE23=Little Bo Peep
TTITLE24=From Wibbleton to  Wobbleton
TTITLE25=Ride a Cock-Horse
TTITLE26=Pussy-Cat, Pussy-Cat
TTITLE27=Mary,Mary
TTITLE28=Rub-A-Dub-Dub
TTITLE29=This Little Pig Went to Market
TTITLE30=Sing a Song of Sixpence
TTITLE31=I Had a Little Nut Tree
TTITLE32=Jack, Be Nimble
TTITLE33=Hot Cross Buns
TTITLE34=Pease Porridge Hot
TTITLE35=Betty Botter
TTITLE36=Jack Sprat
TTITLE37=See-Saw, Margery Daw
TTITLE38=Pat-a-Cake
TTITLE39=Three Little Kittens
TTITLE40=Little Tommy Tucker
TTITLE41=Lucy Locket
TTITLE42=Little Jack Horner
TTITLE43=Little Miss Muffet
TTITLE44=Peter Piper
TTITLE45=Oh Where, Oh Where Has My Little Dog Gone?
TTITLE46=Higglety, Pigglety
TTITLE47=Fiddle-De-Dee
TTITLE48=Hey Didddle Diddle
TTITLE49=Old King Cole
TTITLE50=Humpty Dumpty
TTITLE51=Hicket, Pickety, My Black Hen
TTITLE52=Hot Cross Buns
TTITLE53=There Was an Old Woman
TTITLE54=To Babyland
TTITLE55=Twinkle, Twinkle, Little Star
TTITLE56=All Through the NIght
TTITLE57=Wee Willie Winkie
TTITLE58=Rock-A-Bye,  Baby
TTITLE59=Armenian Lullaby
TTITLE60=Bye, Baby Bunting
TTITLE61=My Dolly
TTITLE62=All Night, All Day
TTITLE63=The Moon
TTITLE64=Golden Slumbers
TTITLE65=Hush, Little Baby
TTITLE66=Bye, Bye, Baby
TTITLE67=Early to Bed
TTITLE68=Mozart's Lullaby
TTITLE69=Lullaby
TTITLE70=Star Light
TTITLE71=Good Night to You All
TTITLE72=Hush, My Child
TTITLE73=Brahms' Lullaby
TTITLE74=Hush-A-Bye
TTITLE75=Sleep, Baby, Sleep
TTITLE76=All the Pretty Little Horses
TTITLE77=Sweetly Sleep
EXTD=YEAR: 2002
EXTT0=
EXTT1=
EXTT2=
EXTT3=
EXTT4=
EXTT5=
EXTT6=
EXTT7=
EXTT8=
EXTT9=
EXTT10=
EXTT11=
EXTT12=
EXTT13=
EXTT14=
EXTT15=
EXTT16=
EXTT17=
EXTT18=
EXTT19=
EXTT20=
EXTT21=
EXTT22=
EXTT23=
EXTT24=
EXTT25=
EXTT26=
EXTT27=
EXTT28=
EXTT29=
EXTT30=
EXTT31=
EXTT32=
EXTT33=
EXTT34=
EXTT35=
EXTT36=
EXTT37=
EXTT38=
EXTT39=
EXTT40=
EXTT41=
EXTT42=
EXTT43=
EXTT44=
EXTT45=
EXTT46=
EXTT47=
EXTT48=
EXTT49=
EXTT50=
EXTT51=
EXTT52=
EXTT53=
EXTT54=
EXTT55=
EXTT56=
EXTT57=
EXTT58=
EXTT59=
EXTT60=
EXTT61=
EXTT62=
EXTT63=
EXTT64=
EXTT65=
EXTT66=
EXTT67=
EXTT68=
EXTT69=
EXTT70=
EXTT71=
EXTT72=
EXTT73=
EXTT74=
EXTT75=
EXTT76=
EXTT77=
PLAYORDER=
